<?xml version="1.0" standalone="no"?>
<!DOCTYPE svg PUBLIC "-//W3C//DTD SVG 1.1//EN" "http://www.w3.org/Graphics/SVG/1.1/DTD/svg11.dtd">
<svg width="50px" height="50px" viewBox="0 0 256 256" version="1.1" xmlns="http://www.w3.org/2000/svg" xmlns:xlink="http://www.w3.org/1999/xlink" xml:space="preserve" style="fill-rule:evenodd;clip-rule:evenodd;stroke-linejoin:round;stroke-miterlimit:1.41421;">
    <g>
        <g>
            <path d="M151.548,168.173L92.7426,168.173L92.7426,162.993C92.7426,154.177 93.8774,147.021 96.1471,141.522C98.4168,136.024 101.796,131.003 106.283,126.459C110.771,121.915 120.856,113.917 136.537,102.466C144.894,96.4681 149.072,90.9699 149.072,85.9714C149.072,80.973 147.396,77.0878 144.043,74.316C140.69,71.5441 135.609,70.1582 128.8,70.1582C121.475,70.1582 115.414,72.2939 110.616,76.5653C105.819,80.8367 102.75,88.2889 101.409,98.9219L41.3651,92.3785C43.4284,72.93 51.4497,57.2758 65.4289,45.4159C79.4082,33.556 100.841,27.626 129.728,27.626C152.219,27.626 170.376,31.7611 184.201,40.0312C202.977,51.2096 212.366,66.114 212.366,84.7445C212.366,92.4694 209.941,99.9216 205.092,107.101C200.243,114.281 190.339,123.051 175.38,133.411C164.96,140.682 158.383,146.521 155.649,150.928C152.915,155.336 151.548,161.084 151.548,168.173ZM90.7308,181.941L153.715,181.941L153.715,230.881L90.7308,230.881L90.7308,181.941Z" style="fill:black;"/>
        </g>
    </g>
</svg>
